<svg id="Group_1238" data-name="Group 1238" xmlns="http://www.w3.org/2000/svg" width="62.51" height="79.961" viewBox="0 0 62.51 79.961">
  <path id="Path_1150" data-name="Path 1150" d="M169.619,157.8H130.011v-7.886a7.507,7.507,0,0,1,6.686-7.486c7.2-.79,22.337-3.52,22.337-12.941h4.705c0,9.561-11.616,15.976-26.532,17.616a2.809,2.809,0,0,0-2.49,2.81v3.18h34.9a18.214,18.214,0,0,0,18.2-18.2l-.065-33.937a18.437,18.437,0,0,0-18.416-18.421h-5.66v41.538h-9.306c-12.291,0-22.787-9.161-23.9-20.857a22.94,22.94,0,0,1,5.9-17.816,23.173,23.173,0,0,1,17.111-7.566v4.7a18.421,18.421,0,0,0-18.331,20.237c.89,9.306,9.331,16.6,19.221,16.6h4.605V77.843h10.361a23.144,23.144,0,0,1,23.117,23.117l.07,33.938A22.931,22.931,0,0,1,169.619,157.8Z" transform="translate(-130.011 -77.843)" fill="#fff"/>
</svg>
