<svg id="Group_322" data-name="Group 322" xmlns="http://www.w3.org/2000/svg" width="260.948" height="295.989" viewBox="0 0 260.948 295.989">
  <path id="Path_128" data-name="Path 128" d="M253.5,350.123l-119.259-.094c.4-.075-14.25-16.022-14.25-16.022,25.692-4.524,64.012-34.513,61.976-73h29.914c0,25.635-11.4,45.068-26.577,59.205h67.65c40.337-1.6,44.691-34.532,44.691-48.631v-139.6c0-45.615-35.549-47.933-42.693-47.933H211.886V237.895h-53.4c-36.926,0-91.871-24.466-91.871-91.89,0-67.4,54.945-91.871,91.871-91.871V84.048c-21.432,0-61.957,12.949-61.957,61.957,0,49.027,40.526,61.976,61.957,61.976h23.486V54.134h72.984c25.126,0,72.607,16.267,72.607,77.847v139.6c0,55.982-39.734,77.3-73.776,78.545Z" transform="translate(-66.615 -54.134)" fill="#fff"/>
</svg>
